# File created by Blade
# Date/Time:  Wed Apr 08 14:55:03 2015
# Frame Rate: 120.000 fps
#------------------------------------------------------
:FULLY-SPECIFIED
:DEGREES
2566
root 1.837955 32.827464 -6.684885 12.240727 1.095799 -2.025598
Spine -14.201111 -6.751083 0.983087
Head 11.097042 -4.441568 -0.454590
LeftShoulder -20.007822 37.320169 23.231438
LeftArm 52.895058 -57.042161 -52.314556
LeftForeArm 11.697721 -0.000000 -2.688383
LeftHand 2.486973 0.000000 3.689702
LeftHandThumb1 -26.253704 0.000000 33.147579
RightShoulder -6.626623 3.492412 -32.384518
RightArm 11.136068 10.209195 36.419549
RightForeArm -9.185037 -0.000000 -2.261756
RightHand 0.526914 -0.000000 1.887655
RightHandThumb1 -24.326973 -0.000000 -32.862282
LeftUpLeg -3.295827 -5.065144 3.131201
LeftLeg -5.101485 -0.000000 0.000000
LeftFoot -5.274951 9.022691 -17.197501
LeftToeBase -7.495935 -0.000000 0.000000
RightUpLeg -4.583040 1.077325 2.578715
RightLeg -5.088503 -0.000000 0.000000
RightFoot -4.121358 -9.069265 7.772955
RightToeBase -3.341736 -0.000000 0.000000
2567
root 1.836608 32.826472 -6.698270 12.231960 1.139926 -2.023417
Spine -14.152804 -6.774442 0.974523
Head 11.399442 -4.519572 -0.461137
LeftShoulder -19.985191 37.330464 23.258641
LeftArm 52.918956 -56.974044 -52.315882
LeftForeArm 11.699355 -0.000000 -2.672327
LeftHand 2.407454 -0.000000 3.771794
LeftHandThumb1 -26.253704 0.000000 33.147579
RightShoulder -6.652263 3.471899 -32.358271
RightArm 11.155340 10.221502 36.427008
RightForeArm -9.166452 0.000000 -2.273843
RightHand 0.423197 -0.000000 1.933658
RightHandThumb1 -24.326973 -0.000000 -32.862282
LeftUpLeg -3.316556 -5.091375 3.142329
LeftLeg -5.104166 -0.000000 0.000000
LeftFoot -5.303780 8.995510 -17.289233
LeftToeBase -7.354120 -0.000000 0.000000
RightUpLeg -4.593142 1.108614 2.573845
RightLeg -5.091224 -0.000000 0.000000
RightFoot -4.127850 -9.106422 7.764274
RightToeBase -3.301037 -0.000000 0.000000
2568
root 1.836024 32.825296 -6.713756 12.230637 1.182173 -2.020083
Spine -14.111901 -6.795203 0.970329
Head 11.781502 -4.608181 -0.492227
LeftShoulder -19.968300 37.360646 23.269716
LeftArm 52.945727 -56.924850 -52.321039
LeftForeArm 11.691677 -0.000000 -2.635066
LeftHand 2.408129 0.000000 3.802487
LeftHandThumb1 -26.253704 0.000000 33.147579
RightShoulder -6.670709 3.436714 -32.354441
RightArm 11.175117 10.246335 36.454870
RightForeArm -9.143106 -0.000000 -2.285345
RightHand 0.407222 -0.000000 1.896919
RightHandThumb1 -24.326973 -0.000000 -32.862282
LeftUpLeg -3.345679 -5.147162 3.153735
LeftLeg -5.112899 -0.000000 0.000000
LeftFoot -5.308360 9.015443 -17.272711
LeftToeBase -7.333618 -0.000000 0.000000
RightUpLeg -4.621483 1.117380 2.570942
RightLeg -5.081509 -0.000000 0.000000
RightFoot -4.136832 -9.141278 7.751951
RightToeBase -3.271784 -0.000000 0.000000
2569
root 1.836453 32.824266 -6.728727 12.223728 1.224804 -2.007808
Spine -14.074358 -6.818518 0.958964
Head 12.211374 -4.682476 -0.537607
LeftShoulder -19.943508 37.434943 23.273303
LeftArm 53.045610 -56.933041 -52.412243
LeftForeArm 11.717687 0.000000 -2.586780
LeftHand 2.443100 -0.000000 3.818037
LeftHandThumb1 -26.253704 0.000000 33.147579
RightShoulder -6.670896 3.393375 -32.342659
RightArm 11.162914 10.281391 36.445653
RightForeArm -9.256551 0.000000 -2.274664
RightHand 0.496602 0.000000 1.844996
RightHandThumb1 -24.326973 -0.000000 -32.862282
LeftUpLeg -3.370213 -5.194128 3.155018
LeftLeg -5.110288 -0.000000 0.000000
LeftFoot -5.292030 8.980008 -17.283259
LeftToeBase -7.418053 -0.000000 0.000000
RightUpLeg -4.640747 1.107890 2.560217
RightLeg -5.073359 -0.000000 0.000000
RightFoot -4.155838 -9.150328 7.762738
RightToeBase -3.285180 -0.000000 0.000000
2570
root 1.837438 32.822947 -6.744472 12.219798 1.266166 -1.986517
Spine -14.043816 -6.843815 0.936312
Head 12.719310 -4.815305 -0.582969
LeftShoulder -19.933352 37.499398 23.279928
LeftArm 53.200282 -56.952920 -52.569245
LeftForeArm 11.727492 -0.000000 -2.521718
LeftHand 2.466540 -0.000000 3.867281
LeftHandThumb1 -26.253704 0.000000 33.147579
RightShoulder -6.678611 3.353389 -32.357134
RightArm 11.174091 10.269413 36.486324
RightForeArm -9.080410 -0.000000 -2.240572
RightHand 0.422366 0.000000 1.663281
RightHandThumb1 -24.326973 -0.000000 -32.862282
LeftUpLeg -3.399904 -5.246029 3.146611
LeftLeg -5.113486 -0.000000 0.000000
LeftFoot -5.293132 8.994083 -17.300885
LeftToeBase -7.292580 -0.000000 0.000000
RightUpLeg -4.639066 1.155425 2.530140
RightLeg -5.117250 -0.000000 0.000000
RightFoot -4.157680 -9.222317 7.793042
RightToeBase -3.266502 -0.000000 0.000000
2571
root 1.838487 32.822915 -6.760280 12.198196 1.318809 -1.977673
Spine -13.985541 -6.881647 0.935292
Head 13.293524 -4.876279 -0.652310
LeftShoulder -19.945787 37.561767 23.248125
LeftArm 53.348260 -56.990166 -52.706581
LeftForeArm 11.707276 0.000000 -2.445810
LeftHand 2.511246 -0.000000 3.862423
LeftHandThumb1 -26.253704 0.000000 33.147579
RightShoulder -6.681367 3.311063 -32.357684
RightArm 11.180806 10.305462 36.493341
RightForeArm -9.001533 0.000000 -2.235734
RightHand 0.514035 -0.000000 1.698690
RightHandThumb1 -24.326973 -0.000000 -32.862282
LeftUpLeg -3.418425 -5.272550 3.146224
LeftLeg -5.103034 -0.000000 0.000000
LeftFoot -5.237248 8.967850 -17.231854
LeftToeBase -7.440488 -0.000000 0.000000
RightUpLeg -4.632542 1.121760 2.524645
RightLeg -5.136227 -0.000000 0.000000
RightFoot -4.143073 -9.230339 7.778109
RightToeBase -3.291927 -0.000000 0.000000
2572
root 1.839260 32.823027 -6.777818 12.192008 1.363357 -1.962930
Spine -13.924319 -6.923634 0.920974
Head 13.834165 -4.938998 -0.730616
LeftShoulder -19.982534 37.582590 23.230343
LeftArm 53.496435 -57.029638 -52.880215
LeftForeArm 11.665003 -0.000000 -2.343729
LeftHand 2.540055 -0.000000 3.849645
LeftHandThumb1 -26.253704 0.000000 33.147579
RightShoulder -6.710720 3.310501 -32.346869
RightArm 11.197476 10.290041 36.479619
RightForeArm -8.999497 0.000000 -2.239893
RightHand 0.506351 -0.000000 1.625398
RightHandThumb1 -24.326973 -0.000000 -32.862282
LeftUpLeg -3.449563 -5.321462 3.143368
LeftLeg -5.105309 -0.000000 0.000000
LeftFoot -5.213895 8.977295 -17.214472
LeftToeBase -7.449364 -0.000000 0.000000
RightUpLeg -4.645196 1.123520 2.507437
RightLeg -5.153884 -0.000000 0.000000
RightFoot -4.147092 -9.247727 7.825295
RightToeBase -3.204663 -0.000000 0.000000
2573
root 1.839606 32.822529 -6.795308 12.175984 1.409171 -1.936887
Spine -13.864035 -6.942806 0.886455
Head 14.475462 -5.115784 -0.780031
LeftShoulder -19.957490 37.599747 23.249365
LeftArm 53.608530 -57.078445 -53.030855
LeftForeArm 11.600160 -0.000000 -2.244300
LeftHand 2.528468 -0.000000 3.921298
LeftHandThumb1 -26.253704 0.000000 33.147579
RightShoulder -6.754576 3.250889 -32.351551
RightArm 11.236281 10.278629 36.486662
RightForeArm -9.026332 -0.000000 -2.222194
RightHand 0.510513 -0.000000 1.635642
RightHandThumb1 -24.326973 -0.000000 -32.862282
LeftUpLeg -3.475875 -5.362708 3.126456
LeftLeg -5.095270 -0.000000 0.000000
LeftFoot -5.201723 8.972011 -17.208322
LeftToeBase -7.441914 -0.000000 0.000000
RightUpLeg -4.634590 1.144515 2.477944
RightLeg -5.197964 -0.000000 0.000000
RightFoot -4.140596 -9.308703 7.840677
RightToeBase -3.197541 -0.000000 0.000000
2574
root 1.840948 32.823530 -6.815861 12.165135 1.443539 -1.923317
Spine -13.789264 -6.947751 0.869711
Head 15.126600 -5.245102 -0.875814
LeftShoulder -19.957820 37.591474 23.240796
LeftArm 53.746698 -57.139478 -53.192949
LeftForeArm 11.581135 -0.000000 -2.152187
LeftHand 2.497438 -0.000000 3.892303
LeftHandThumb1 -26.253704 0.000000 33.147579
RightShoulder -6.799541 3.228345 -32.365582
RightArm 11.253879 10.253150 36.477655
RightForeArm -9.187034 -0.000000 -2.220308
RightHand 0.551684 -0.000000 1.693140
RightHandThumb1 -24.326973 -0.000000 -32.862282
LeftUpLeg -3.504853 -5.412759 3.120223
LeftLeg -5.097261 -0.000000 0.000000
LeftFoot -5.169793 8.983062 -17.191124
LeftToeBase -7.482626 -0.000000 0.000000
RightUpLeg -4.674415 1.111649 2.465250
RightLeg -5.160532 -0.000000 0.000000
RightFoot -4.153713 -9.288865 7.846989
RightToeBase -3.206888 -0.000000 0.000000
2575
root 1.841097 32.824517 -6.836898 12.152439 1.466499 -1.908864
Spine -13.717887 -6.960722 0.846262
Head 15.851126 -5.366420 -0.969766
LeftShoulder -19.990327 37.638134 23.213076
LeftArm 53.873168 -57.174225 -53.316799
LeftForeArm 11.514640 -0.000000 -2.107457
LeftHand 2.588964 -0.000000 4.012129
LeftHandThumb1 -26.253704 0.000000 33.147579
RightShoulder -6.809292 3.193520 -32.381999
RightArm 11.268022 10.263158 36.487997
RightForeArm -9.298225 -0.000000 -2.216316
RightHand 0.553951 -0.000000 1.657097
RightHandThumb1 -24.326973 -0.000000 -32.862282
LeftUpLeg -3.538945 -5.423032 3.109466
LeftLeg -5.093983 -0.000000 0.000000
LeftFoot -5.150750 9.007370 -17.170617
LeftToeBase -7.408413 -0.000000 0.000000
RightUpLeg -4.719676 1.077907 2.453527
RightLeg -5.113400 -0.000000 0.000000
RightFoot -4.167831 -9.283802 7.842775
RightToeBase -3.207909 -0.000000 0.000000
2576
root 1.842742 32.826349 -6.858180 12.125446 1.479309 -1.900273
Spine -13.625608 -6.957228 0.831249
Head 16.630045 -5.526875 -1.086511
LeftShoulder -20.035077 37.706822 23.171319
LeftArm 54.140232 -57.264929 -53.601226
LeftForeArm 11.530521 -0.000000 -2.044875
LeftHand 2.619226 0.000000 4.057068
LeftHandThumb1 -26.253704 0.000000 33.147579
RightShoulder -6.822341 3.125659 -32.401330
RightArm 11.306167 10.278141 36.492415
RightForeArm -9.348349 0.000000 -2.230095
RightHand 0.559986 -0.000000 1.601082
RightHandThumb1 -24.326973 -0.000000 -32.862282
LeftUpLeg -3.556769 -5.450361 3.101706
LeftLeg -5.084785 -0.000000 0.000000
LeftFoot -5.135488 9.027772 -17.187812
LeftToeBase -7.404679 -0.000000 0.000000
RightUpLeg -4.760697 1.016774 2.445045
RightLeg -5.045505 -0.000000 0.000000
RightFoot -4.204443 -9.193059 7.884528
RightToeBase -3.119726 -0.000000 0.000000
2577
root 1.843791 32.827944 -6.881030 12.084326 1.493633 -1.875680
Spine -13.511473 -6.951007 0.787308
Head 17.461669 -5.714317 -1.207449
LeftShoulder -20.030318 37.698776 23.183457
LeftArm 54.186036 -57.286048 -53.675675
LeftForeArm 11.550413 -0.000000 -1.988745
LeftHand 2.611362 -0.000000 4.124009
LeftHandThumb1 -26.253704 0.000000 33.147579
RightShoulder -6.832870 3.032580 -32.416554
RightArm 11.325375 10.352145 36.500833
RightForeArm -9.408407 -0.000000 -2.208276
RightHand 0.563868 0.000000 1.585902
RightHandThumb1 -24.326973 -0.000000 -32.862282
LeftUpLeg -3.573665 -5.418940 3.072341
LeftLeg -5.056541 -0.000000 0.000000
LeftFoot -5.141877 8.986391 -17.245964
LeftToeBase -7.234928 -0.000000 0.000000
RightUpLeg -4.780972 0.973797 2.421690
RightLeg -4.997443 -0.000000 0.000000
RightFoot -4.200882 -9.163407 7.872450
RightToeBase -3.179561 -0.000000 0.000000
